<svg xmlns="http://www.w3.org/2000/svg" viewBox="0 0 100 100" fill="none">
  <defs>
    <linearGradient id="darkBlue" x1="0%" y1="0%" x2="0%" y2="100%">
      <stop offset="0%" stop-color="#1e3a5f"/>
      <stop offset="100%" stop-color="#152a45"/>
    </linearGradient>
    <linearGradient id="teal" x1="0%" y1="100%" x2="100%" y2="0%">
      <stop offset="0%" stop-color="#1a5f5f"/>
      <stop offset="100%" stop-color="#38b2ac"/>
    </linearGradient>
  </defs>

  <!-- Letra K - Barra vertical esquerda -->
  <rect x="8" y="5" width="18" height="90" rx="2" fill="url(#darkBlue)"/>

  <!-- Buraco no meio do K -->
  <rect x="14" y="40" width="8" height="20" rx="1" fill="white"/>

  <!-- K - Diagonal superior -->
  <polygon points="26,35 26,5 35,5 55,30 45,42" fill="url(#darkBlue)"/>

  <!-- Parte teal - conexão com seta -->
  <polygon points="26,65 26,95 38,95 38,80 50,68" fill="url(#teal)"/>

  <!-- Seta apontando para cima-direita -->
  <path d="M45,55 L60,40 L60,50 L85,50 L85,60 L60,60 L60,70 L45,55" fill="url(#teal)"/>

  <!-- Ponta da seta -->
  <polygon points="85,42 95,55 85,68 85,60 85,50" fill="url(#teal)"/>
</svg>
